<?xml version="1.0" standalone="no"?>
<!DOCTYPE svg PUBLIC "-//W3C//DTD SVG 1.0//EN" "http://www.w3.org/TR/2001/REC-SVG-20010904/DTD/svg10.dtd">
<svg xmlns="http://www.w3.org/2000/svg" xmlns:xlink="http://www.w3.org/1999/xlink" id="body_1" width="68" height="26">

<g transform="matrix(0.09756317 0 0 0.09756317 -0 0.028883677)">
	<g transform="matrix(1.9074776 0 0 1.9074776 -994.8748 -1053.226)">
        <path d="M704.0367 687.6373C 667.8589 687.6373 638.5308 658.30927 638.5308 622.1315C 638.5308 585.9537 667.8589 556.6256 704.0367 556.6256C 740.2145 556.6256 769.54254 585.9537 769.54254 622.1315C 769.54254 658.30927 740.2145 687.6373 704.0367 687.6373z" stroke="none" fill="#3385FF" fill-rule="nonzero" />
        <path d="M733.0074 579.6068C 733.0074 579.6068 721.47485 592.36914 719.8465 593.8685C 715.0723 591.1896 709.6708 589.75494 704.03674 589.75494C 686.1559 589.75494 671.6603 604.25055 671.6603 622.1314C 671.6603 640.01227 686.1559 654.5079 704.03674 654.5079C 709.51166 654.5079 714.76715 653.1531 719.4414 650.6177C 720.75903 651.83844 725.2195 656.5594 732.8227 664.781C 724.3867 670.48376 714.43036 673.5824 704.03674 673.5824C 675.6212 673.5824 652.58575 650.54694 652.58575 622.1314C 652.58575 593.7159 675.6212 570.6804 704.03674 570.6804C 714.5076 570.6804 724.5338 573.8252 733.0074 579.6068z" stroke="none" fill="#FFFFFF" fill-rule="nonzero" />
	</g>
    <path transform="matrix(1 0 0 1 -0 -26.56)"  d="M128 182.74373L128 292.45944L0 42.557518L67.04904 42.557518" stroke="none" fill="#7BC6FF" fill-rule="nonzero" />
    <path transform="matrix(1 0 0 1 -0 -26.56)"  d="M128 182.74622L128 292.4619L256 42.56L188.95096 42.56" stroke="none" fill="#AEDDFF" fill-rule="nonzero" />
    <path transform="matrix(1 0 -0 -1 440.98434 292.4619)"  d="M128 182.74373L128 292.45944L0 42.557518L67.04904 42.557518" stroke="none" fill="#7BC6FF" fill-rule="nonzero" />
    <path transform="matrix(1 0 -0 -1 440.98434 292.4619)"  d="M128 182.74622L128 292.4619L256 42.56L188.95096 42.56" stroke="none" fill="#AEDDFF" fill-rule="nonzero" />
    <path d="M326.24268 255.6339C 300.29233 250.54253 280.60593 239.97896 261.63306 220.96484C 245.30891 204.60522 237.35637 192.4813 231.1313 174.4638C 210.5144 114.79153 237.4431 49.49904 293.87238 22.339005C 312.5852 13.332325 327.03314 10.064745 348.00635 10.095944C 368.46664 10.126345 382.80145 13.182434 399.88156 21.155273C 426.99646 33.812263 446.90045 53.662212 459.53644 80.64812C 469.24637 101.385056 471.59778 111.83784 471.49316 133.79941C 471.38824 155.83673 468.20486 169.24905 458.2693 189.51576C 452.43976 201.40688 447.94873 207.38457 435.18787 220.2379C 421.55765 233.96687 417.03146 237.30653 402.78894 244.1435C 377.8592 256.11075 349.99347 260.2937 326.2427 255.6339L326.2427 255.6339L326.24268 255.6339zM372.29227 229.36519C 382.40955 226.87198 402.799 217.25618 402.7291 215.01102C 402.6962 213.95482 397.29224 207.21957 390.7203 200.04382L390.7203 200.04382L378.7713 186.99696L369.43243 190.45917C 362.88977 192.8847 356.0772 193.87604 346.67957 193.77003C 335.29095 193.6416 331.55524 192.77672 321.93832 188.04233C 301.00583 177.7373 289.32938 159.92366 288.1439 136.48544C 287.22195 118.25794 291.50375 106.25724 303.6844 92.92969C 320.58096 74.44212 344.3737 68.27948 367.93555 76.28773L367.93555 76.28773L379.26288 80.13768L391.7706 66.51599C 398.64984 59.02407 403.8877 52.26226 403.41025 51.48976C 402.0898 49.353233 387.40268 42.31673 376.64886 38.66857C 362.42813 33.84428 334.40933 34.09885 318.1972 39.199642C 288.82272 48.441673 263.41675 73.77805 253.64539 103.574554C 249.02122 117.67538 248.99222 149.79532 253.59138 163.42471C 270.4757 213.46094 321.595 241.85864 372.2922 229.3652z" stroke="none" fill="#1697F6" fill-rule="nonzero" />
    <path d="M129.1905 207.81505L129.1905 155.58328L159.25148 86.323456L189.31245 17.063614L222.11885 17.052214L254.92525 17.040813L243.6874 38.38845C 237.50658 50.12966 210.25606 103.25916 183.13068 156.45401C 156.00531 209.64886 132.77202 254.71878 131.50116 256.60934C 129.557 259.50156 129.1905 251.76222 129.1905 207.815L129.1905 207.815L129.1905 207.81505z" stroke="none" fill="#1697F6" fill-rule="nonzero" />
    <path d="M475.43857 184.79156C 493.46848 149.53577 521.5516 94.638916 537.84546 62.79854L537.84546 62.79854L567.47076 4.9069366L567.93146 56.826275L568.39215 108.74562L538.13727 178.34479L507.88235 247.94395L475.26965 248.41846L442.65695 248.89296L475.43857 184.79156z" stroke="none" fill="#1697F6" fill-rule="nonzero" />
    <path d="M600.1458 179.43878L570.08484 110.11892L570.10486 57.04489L570.1249 3.9708595L612.91266 87.618774C 636.446 133.62514 664.69037 188.71513 675.678 210.041L675.678 210.041L695.6556 248.81529L662.9311 248.78699L630.20667 248.75868L600.1458 179.43878z" stroke="none" fill="#1697F6" fill-rule="nonzero" />
    <path d="M89.71964 189.09341C 69.44837 149.57628 41.3376 94.68078 27.25126 67.1034L27.25126 67.1034L1.6397514 16.962711L34.269463 17.43744L66.89916 17.91218L97.198494 87.558815L127.497826 157.20544L127.03718 209.07407L126.576515 260.9427L89.71964 189.09341z" stroke="none" fill="#1867C0" fill-rule="nonzero" />
    <path d="M628.7317 243.15164C 627.41547 240.03664 613.6815 208.30615 598.2117 172.63948L598.2117 172.63948L570.0848 107.79098L570.1618 57.623577L570.23883 7.456188L573.7747 13.555518C 578.1292 21.066828 693.8137 247.10172 693.8137 248.09865C 693.8137 248.49281 679.7086 248.81529 662.4691 248.81529L662.4691 248.81529L631.1245 248.81529L628.7317 243.15164z" stroke="none" fill="#1867C0" fill-rule="nonzero" />
</g>
</svg>