<?xml version="1.0" encoding="UTF-8" standalone="no"?>
<svg
   width="696.98438"
   height="265.90192"
   viewBox="0 0 696.98438 265.90192"
   version="1.1"
   preserveAspectRatio="xMidYMid"
   id="svg1037"
   sodipodi:docname="vcv.svg"
   inkscape:version="1.1.1 (3bf5ae0d25, 2021-09-20)"
   xmlns:inkscape="http://www.inkscape.org/namespaces/inkscape"
   xmlns:sodipodi="http://sodipodi.sourceforge.net/DTD/sodipodi-0.dtd"
   xmlns="http://www.w3.org/2000/svg"
   xmlns:svg="http://www.w3.org/2000/svg">
  <defs
     id="defs1041" />
  <sodipodi:namedview
     id="namedview1039"
     pagecolor="#ffffff"
     bordercolor="#666666"
     borderopacity="1.0"
     inkscape:pageshadow="2"
     inkscape:pageopacity="0.0"
     inkscape:pagecheckerboard="0"
     showgrid="false"
     showguides="true"
     inkscape:guide-bbox="true"
     inkscape:zoom="0.57383373"
     inkscape:cx="128.08588"
     inkscape:cy="-353.76101"
     inkscape:window-width="1920"
     inkscape:window-height="1017"
     inkscape:window-x="-8"
     inkscape:window-y="-8"
     inkscape:window-maximized="1"
     inkscape:current-layer="svg1037"
     fit-margin-top="0"
     fit-margin-left="0"
     fit-margin-right="0"
     fit-margin-bottom="0">
    <sodipodi:guide
       position="-595.40439,504.35198"
       orientation="0,-1"
       id="guide1597" />
    <sodipodi:guide
       position="-273.78705,723.69253"
       orientation="1,0"
       id="guide1599" />
    <sodipodi:guide
       position="-65.536763,723.69253"
       orientation="1,0"
       id="guide1601" />
    <sodipodi:guide
       position="-719.86167,257.90192"
       orientation="0,-1"
       id="guide1603" />
    <sodipodi:guide
       position="178.52226,8.3615899"
       orientation="0,-1"
       id="guide106373" />
  </sodipodi:namedview>
  <g
     id="g106122"
     transform="matrix(1.9074776,0,0,1.9074776,-994.87482,-1053.226)">
    <path
       d="m 704.0367,687.63732 c -36.17782,0 -65.50588,-29.32806 -65.50588,-65.50588 0,-36.17782 29.32806,-65.50588 65.50588,-65.50588 36.17782,0 65.50588,29.32806 65.50588,65.50588 0,36.17782 -29.32806,65.50588 -65.50588,65.50588 z"
       fill="#3385ff"
       id="path105350-5" />
    <path
       d="m 733.00737,579.60683 c 0,0 -11.53255,12.76235 -13.16091,14.26171 -4.77415,-2.67897 -10.17575,-4.11357 -15.80976,-4.11357 -17.88085,0 -32.37647,14.49562 -32.37647,32.37647 0,17.88085 14.49562,32.37647 32.37647,32.37647 5.47489,0 10.73041,-1.35479 15.40467,-3.89019 1.31765,1.22076 5.77808,5.9417 13.38127,14.16332 -8.43595,5.70278 -18.39234,8.80138 -28.78594,8.80138 -28.4155,0 -51.45098,-23.03548 -51.45098,-51.45098 0,-28.4155 23.03548,-51.45098 51.45098,-51.45098 10.4709,0 20.49707,3.14478 28.97067,8.92637 z"
       fill="#ffffff"
       id="path105354"
       sodipodi:nodetypes="ccsssccsssc" />
  </g>
  <polyline
     fill="#7bc6ff"
     points="128 182.743732 128 292.459439 0 42.5575194 67.0490402 42.5575194"
     id="polyline985-21"
     transform="translate(0,-26.559999)" />
  <polyline
     fill="#aeddff"
     points="128 182.746214 128 292.461921 256 42.5600014 188.95096 42.5600014"
     id="polyline987-4"
     transform="translate(0,-26.559999)" />
  <polyline
     fill="#7bc6ff"
     points="128 182.743732 128 292.459439 0 42.5575194 67.0490402 42.5575194"
     id="polyline985-21-1"
     transform="matrix(1,0,0,-1,440.98435,292.46192)" />
  <polyline
     fill="#aeddff"
     points="128 182.746214 128 292.461921 256 42.5600014 188.95096 42.5600014"
     id="polyline987-4-7"
     transform="matrix(1,0,0,-1,440.98435,292.46192)" />
  <path
     style="fill:#1697f6;fill-opacity:1;stroke-width:1.74267"
     d="m 326.24268,255.6339 c -25.95034,-5.09137 -45.63674,-15.65494 -64.60963,-34.66905 -16.32414,-16.35962 -24.27669,-28.48355 -30.50176,-46.50104 -20.61689,-59.67228 6.3118,-124.964769 62.74106,-152.124799 18.71282,-9.00668 33.16077,-12.27426 54.13396,-12.24306 20.46029,0.0304 34.7951,3.08649 51.87522,11.05933 27.11489,12.65699 47.0189,32.50694 59.65488,59.49284 9.70992,20.736939 12.06135,31.189719 11.95674,53.151289 -0.10491,22.03733 -3.28829,35.44965 -13.22389,55.71635 -5.82953,11.89111 -10.32055,17.8688 -23.08142,30.72214 -13.63021,13.72897 -18.15641,17.06863 -32.39892,23.9056 -24.92976,11.96726 -52.79547,16.1502 -76.54624,11.4904 z m 46.0496,-26.26871 c 10.11728,-2.49321 30.50675,-12.10901 30.43683,-14.35417 -0.0329,-1.0562 -5.43685,-7.79144 -12.00878,-14.9672 l -11.94899,-13.04686 -9.33886,3.46221 c -6.54265,2.42554 -13.35522,3.41687 -22.75286,3.31087 -11.38861,-0.12844 -15.12433,-0.99332 -24.74124,-5.72771 -20.9325,-10.30503 -32.60896,-28.11867 -33.79444,-51.55688 -0.92193,-18.2275 3.35987,-30.2282 15.54051,-43.555759 16.89659,-18.48756 40.68931,-24.65021 64.25117,-16.64196 l 11.32732,3.84995 12.50773,-13.62169 c 6.87925,-7.49192 12.11709,-14.25373 11.63965,-15.02623 -1.32043,-2.13653 -16.00757,-9.17303 -26.76137,-12.82119 -14.22074,-4.82429 -42.23952,-4.56972 -58.45165,0.53107 -29.37447,9.24203 -54.78047,34.57841 -64.55181,64.374919 -4.62416,14.10082 -4.65316,46.22076 -0.054,59.85015 16.88432,50.03622 68.00361,78.43393 118.70082,65.94048 z"
     id="path225380" />
  <path
     style="fill:#1697f6;fill-opacity:1;stroke-width:1.74267"
     d="m 129.1905,207.81505 v -52.23177 l 30.06098,-69.259829 30.06097,-69.25984 32.8064,-0.0114 32.8064,-0.0114 -11.23785,21.34764 c -6.18082,11.74121 -33.43134,64.870709 -60.55672,118.065559 -27.12537,53.19486 -50.35866,98.26476 -51.62952,100.15534 -1.94416,2.8922 -2.31066,-4.84712 -2.31066,-48.79434 z"
     id="path225419" />
  <path
     style="fill:#1697f6;fill-opacity:1;stroke-width:1.74267"
     d="m 475.43857,184.79157 c 18.02992,-35.25579 46.11302,-90.152649 62.40692,-121.993029 l 29.6253,-57.8916 0.4607,51.91934 0.4607,51.919349 -30.2549,69.59917 -30.2549,69.59917 -32.61271,0.47451 -32.61269,0.47451 z"
     id="path225458" />
  <path
     style="fill:#1697f6;fill-opacity:1;stroke-width:1.74267"
     d="m 600.14579,179.43878 -30.061,-69.31986 0.02,-53.074029 0.02,-53.07403 42.7878,83.64792 c 23.5333,46.006359 51.7777,101.096359 62.7653,122.422229 l 19.9776,38.77429 -32.7245,-0.0283 -32.7244,-0.0283 z"
     id="path229822" />
  <path
     style="fill:#1867c0;fill-opacity:1;stroke-width:1.74267"
     d="M 89.71964,189.09341 C 69.44837,149.57628 41.3376,94.680781 27.25126,67.103401 l -25.61151,-50.14069 32.62971,0.47473 32.6297,0.47474 30.29933,69.64664 30.29933,69.646639 -0.46065,51.86863 -0.46066,51.86863 z"
     id="path229861" />
  <path
     style="fill:#1867c0;fill-opacity:1;stroke-width:1.74267"
     d="m 628.73169,243.15164 c -1.3162,-3.11501 -15.0502,-34.84549 -30.52,-70.51216 l -28.1269,-64.8485 0.077,-50.167399 0.077,-50.16739 3.5359,6.09933 c 4.3545,7.51131 120.039,233.546199 120.039,234.543129 0,0.39416 -14.1051,0.71665 -31.3446,0.71665 h -31.3446 z"
     id="path235124" />
</svg>
